<svg width="18" height="12" viewBox="0 0 18 12" fill="none" xmlns="http://www.w3.org/2000/svg">
<path d="M0 10.9308L3.60467 0H5.54051L9.14518 10.9308H7.37622L5.60726 4.97311C5.42925 4.37233 5.25125 3.77155 5.07324 3.17077C4.90635 2.55887 4.73947 1.94697 4.57259 1.33506H4.50584C4.35008 1.94697 4.1832 2.55887 4.00519 3.17077C3.8383 3.77155 3.66586 4.37233 3.48785 4.97311L1.7022 10.9308H0ZM2.01928 7.79343V6.47505H7.09252V7.79343H2.01928Z" fill="#0E121B"/>
<path d="M13.3441 11.1311C12.8212 11.1311 12.3484 11.0365 11.9256 10.8474C11.514 10.6471 11.1858 10.3745 10.941 10.0297C10.7074 9.67364 10.5905 9.25643 10.5905 8.77804C10.5905 7.86574 11.0356 7.1704 11.9256 6.692C12.8268 6.2136 14.3009 5.89653 16.348 5.74077C16.3369 5.407 16.259 5.10105 16.1144 4.82291C15.9809 4.54478 15.7639 4.32783 15.4635 4.17207C15.1743 4.00519 14.7904 3.92175 14.312 3.92175C13.9783 3.92175 13.6501 3.96625 13.3274 4.05525C13.0048 4.13313 12.6933 4.24439 12.3929 4.38902C12.0925 4.53365 11.8088 4.68384 11.5418 4.8396L10.9243 3.72149C11.2247 3.54348 11.5696 3.36547 11.959 3.18746C12.3484 2.99833 12.7656 2.84813 13.2106 2.73688C13.6667 2.62562 14.1285 2.57 14.5957 2.57C15.3523 2.57 15.9809 2.70906 16.4815 2.9872C16.9822 3.26534 17.3604 3.6603 17.6163 4.17207C17.8722 4.68384 18.0001 5.30131 18.0001 6.02447V10.9308H16.6484L16.5149 9.87946H16.4648C16.0309 10.2132 15.5414 10.5081 14.9962 10.7639C14.4511 11.0087 13.9004 11.1311 13.3441 11.1311ZM13.8114 9.81271C14.2453 9.81271 14.6736 9.71814 15.0964 9.52901C15.5191 9.33988 15.9364 9.07286 16.348 8.72797V6.79213C15.2799 6.87001 14.44 6.99239 13.8281 7.15927C13.2273 7.32616 12.8045 7.53754 12.5598 7.79343C12.315 8.03819 12.1926 8.32745 12.1926 8.66122C12.1926 8.92823 12.2649 9.15074 12.4096 9.32875C12.5653 9.49563 12.7656 9.61801 13.0103 9.69589C13.2551 9.77377 13.5221 9.81271 13.8114 9.81271Z" fill="#0E121B"/>
</svg>
