<svg width="744" height="386" viewBox="0 0 744 386" fill="none" xmlns="http://www.w3.org/2000/svg">
<path d="M40 42C40 40.8954 40.8954 40 42 40H702C703.105 40 704 40.8954 704 42V344C704 345.105 703.105 346 702 346H42C40.8954 346 40 345.105 40 344V42Z" fill="white"/>
<path d="M42 41H702V39H42V41ZM703 42V344H705V42H703ZM702 345H42V347H702V345ZM41 344V42H39V344H41ZM42 345C41.4477 345 41 344.552 41 344H39C39 345.657 40.3432 347 42 347V345ZM703 344C703 344.552 702.552 345 702 345V347C703.657 347 705 345.657 705 344H703ZM702 41C702.552 41 703 41.4477 703 42H705C705 40.3431 703.657 39 702 39V41ZM42 39C40.3431 39 39 40.3431 39 42H41C41 41.4477 41.4477 41 42 41V39Z" fill="white" fill-opacity="0.1"/>
<path fill-rule="evenodd" clip-rule="evenodd" d="M152.003 150.115C150.671 150.115 149.591 151.151 149.591 152.43C149.591 153.709 150.671 154.746 152.003 154.746C153.335 154.746 154.415 153.709 154.415 152.43C154.415 151.151 153.335 150.115 152.003 150.115ZM148.091 152.43C148.091 150.355 149.843 148.675 152.003 148.675C154.163 148.675 155.915 150.355 155.915 152.43C155.915 154.504 154.163 156.186 152.003 156.186C149.843 156.186 148.091 154.504 148.091 152.43Z" fill="#0E121B"/>
<path fill-rule="evenodd" clip-rule="evenodd" d="M144.976 147.195C146.77 145.738 149.251 144.7 152.002 144.7C154.753 144.7 157.233 145.737 159.028 147.193C160.803 148.634 162.004 150.57 162.004 152.43C162.004 154.291 160.803 156.227 159.028 157.667C157.233 159.123 154.753 160.16 152.002 160.16C149.251 160.16 146.77 159.122 144.976 157.666C143.201 156.225 142 154.289 142 152.43C142 150.571 143.201 148.635 144.976 147.195ZM145.944 148.294C144.37 149.572 143.5 151.14 143.5 152.43C143.5 153.72 144.37 155.289 145.944 156.566C147.498 157.827 149.643 158.72 152.002 158.72C154.36 158.72 156.506 157.828 158.06 156.567C159.633 155.29 160.504 153.721 160.504 152.43C160.504 151.139 159.633 149.57 158.06 148.293C156.506 147.032 154.36 146.14 152.002 146.14C149.643 146.14 147.498 147.033 145.944 148.294Z" fill="#0E121B"/>
<path d="M187 152C187 156.97 191.029 161 196 161C200.971 161 205 156.97 205 152C205 147.029 200.971 143 196 143C191.029 143 187 147.029 187 152Z" stroke="#0E121B" stroke-width="1.5" stroke-linecap="round" stroke-linejoin="round"/>
<path d="M196.006 155.693V151.394M196 148.354V148.291" stroke="#0E121B" stroke-width="1.5" stroke-linecap="round" stroke-linejoin="round"/>
<path fill-rule="evenodd" clip-rule="evenodd" d="M239.249 143.5C235.223 143.5 231.96 146.763 231.96 150.789C231.96 154.814 235.223 158.077 239.249 158.077C243.274 158.077 246.537 154.814 246.537 150.789C246.537 146.763 243.274 143.5 239.249 143.5ZM230.46 150.789C230.46 145.935 234.395 142 239.249 142C244.102 142 248.037 145.935 248.037 150.789C248.037 155.643 244.102 159.577 239.249 159.577C234.395 159.577 230.46 155.643 230.46 150.789Z" fill="#0E121B"/>
<path fill-rule="evenodd" clip-rule="evenodd" d="M244.736 155.648L250.352 161.249L249.292 162.311L243.677 156.71L244.736 155.648Z" fill="#0E121B"/>
<path fill-rule="evenodd" clip-rule="evenodd" d="M280.959 144.529C280.959 143.133 282.09 142 283.488 142H284.661C284.68 142 284.698 142 284.707 142.001L284.709 142.001C284.718 142.001 284.72 142.001 284.72 142.001C284.728 142.001 284.736 142.001 284.744 142.001C286.14 142.047 287.236 143.21 287.202 144.603C287.206 144.767 287.251 144.927 287.335 145.07L287.338 145.075L287.34 145.078C287.341 145.079 287.342 145.081 287.343 145.083C287.632 145.571 288.263 145.733 288.751 145.443L288.76 145.438C289.974 144.741 291.524 145.156 292.225 146.368L292.226 146.369L292.808 147.38C292.823 147.405 292.836 147.431 292.847 147.457C293.485 148.658 293.063 150.155 291.88 150.843L291.875 150.846C291.719 150.936 291.589 151.066 291.5 151.222L291.491 151.237L291.49 151.239C291.211 151.729 291.378 152.351 291.864 152.635C291.865 152.636 291.865 152.636 291.866 152.637C291.871 152.639 291.875 152.642 291.881 152.645C291.891 152.65 291.904 152.658 291.919 152.668C293.109 153.377 293.506 154.914 292.806 156.113L292.802 156.121L292.188 157.146C291.486 158.353 289.94 158.768 288.728 158.072C288.575 157.985 288.405 157.937 288.231 157.931H288.221C287.654 157.936 287.198 158.4 287.202 158.966L287.202 158.977C287.193 160.374 286.058 161.5 284.661 161.5H283.491C282.089 161.5 280.953 160.365 280.95 158.964C280.948 158.8 280.904 158.638 280.821 158.495C280.815 158.485 280.809 158.476 280.804 158.466C280.52 157.977 279.892 157.811 279.404 158.096C279.404 158.096 279.404 158.096 279.404 158.096L279.401 158.098C279.395 158.101 279.388 158.105 279.38 158.11C279.377 158.111 279.374 158.113 279.371 158.114C278.145 158.786 276.608 158.342 275.929 157.121L275.351 156.125C275.349 156.122 275.348 156.12 275.346 156.117C275.342 156.11 275.338 156.103 275.333 156.095C274.642 154.884 275.061 153.342 276.271 152.648C276.593 152.462 276.791 152.118 276.791 151.747C276.791 151.375 276.592 151.031 276.27 150.845L276.269 150.844C275.058 150.143 274.641 148.593 275.34 147.379L275.349 147.364L275.971 146.34C276.674 145.134 278.219 144.722 279.431 145.417L279.44 145.422C279.586 145.509 279.751 145.555 279.919 145.557C280.485 145.558 280.949 145.103 280.959 144.535V144.529ZM287.345 145.086C287.345 145.087 287.346 145.088 287.346 145.088L287.345 145.086ZM283.488 143.5C282.919 143.5 282.459 143.961 282.459 144.529V144.552C282.44 145.943 281.304 147.061 279.912 147.057L279.907 147.057C279.474 147.053 279.052 146.935 278.681 146.716C278.183 146.433 277.551 146.604 277.265 147.099L277.256 147.113L276.636 148.134C276.356 148.629 276.527 149.26 277.021 149.546L276.645 150.195L277.02 149.546C277.806 150 278.291 150.839 278.291 151.747C278.291 152.655 277.806 153.494 277.02 153.948L277.018 153.949C276.53 154.228 276.357 154.847 276.628 155.338C276.629 155.339 276.629 155.34 276.63 155.34C276.633 155.346 276.637 155.352 276.641 155.359L277.23 156.375L277.238 156.389C277.514 156.889 278.141 157.073 278.644 156.803C278.648 156.8 278.652 156.798 278.657 156.795C279.854 156.104 281.384 156.504 282.089 157.692C282.089 157.693 282.09 157.694 282.091 157.695C282.097 157.705 282.103 157.714 282.104 157.716L282.106 157.721C282.327 158.094 282.446 158.518 282.45 158.952V158.96C282.45 159.534 282.916 160 283.491 160H284.661C285.232 160 285.696 159.541 285.702 158.97C285.696 157.577 286.819 156.441 288.213 156.431L288.218 156.431H288.242L288.262 156.431C288.688 156.442 289.103 156.559 289.47 156.769L289.474 156.771C289.97 157.056 290.605 156.886 290.893 156.389L290.898 156.379L291.513 155.354C291.797 154.864 291.631 154.236 291.141 153.951C291.138 153.949 291.134 153.946 291.131 153.944C289.922 153.255 289.497 151.717 290.181 150.505C290.191 150.488 290.199 150.475 290.203 150.469C290.424 150.085 290.744 149.766 291.128 149.546C291.62 149.258 291.789 148.628 291.507 148.133C291.496 148.114 291.486 148.093 291.476 148.073L290.927 147.12C290.927 147.12 290.927 147.12 290.927 147.12C290.64 146.625 290.008 146.454 289.511 146.737C288.311 147.444 286.765 147.048 286.054 145.85L286.051 145.845L286.049 145.842C286.048 145.84 286.047 145.839 286.046 145.837C285.826 145.464 285.706 145.04 285.702 144.606C285.702 144.596 285.702 144.585 285.703 144.575C285.721 144.003 285.274 143.524 284.703 143.501C284.69 143.501 284.679 143.5 284.673 143.5L284.671 143.5C284.663 143.5 284.661 143.5 284.66 143.5H283.488ZM278.623 156.815C278.622 156.816 278.624 156.815 278.625 156.814L278.623 156.815ZM284.078 150.031C283.129 150.031 282.361 150.799 282.361 151.748C282.361 152.697 283.129 153.465 284.078 153.465C285.027 153.465 285.796 152.697 285.796 151.748C285.796 150.799 285.027 150.031 284.078 150.031ZM280.861 151.748C280.861 149.971 282.301 148.531 284.078 148.531C285.856 148.531 287.296 149.971 287.296 151.748C287.296 153.525 285.856 154.965 284.078 154.965C282.301 154.965 280.861 153.525 280.861 151.748Z" fill="#0E121B"/>
<path d="M322.42 157.73C320.19 156.27 318.75 154.07 318.75 152.14C318.75 148.86 322.89 144.84 328 144.84C330.09 144.84 332.03 145.51 333.59 146.55" stroke="#0E121B" stroke-width="1.5" stroke-linecap="round" stroke-linejoin="round"/>
<path d="M335.85 148.61C336.741 149.74 337.26 150.99 337.26 152.14C337.26 155.42 333.11 159.44 328 159.44C327.09 159.44 326.201 159.31 325.37 159.08" stroke="#0E121B" stroke-width="1.5" stroke-linecap="round" stroke-linejoin="round"/>
<path d="M325.766 154.367C325.171 153.778 324.838 152.975 324.841 152.138C324.837 150.393 326.249 148.975 327.995 148.972C328.835 148.97 329.641 149.303 330.235 149.897" stroke="#0E121B" stroke-width="1.5" stroke-linecap="round" stroke-linejoin="round"/>
<path d="M331.109 152.699C330.875 153.991 329.864 155.004 328.572 155.241" stroke="#0E121B" stroke-width="1.5" stroke-linecap="round" stroke-linejoin="round"/>
<path d="M335.892 144.25L320.118 160.024" stroke="#0E121B" stroke-width="1.5" stroke-linecap="round" stroke-linejoin="round"/>
<path fill-rule="evenodd" clip-rule="evenodd" d="M363.708 147.404C364.09 147.242 364.53 147.421 364.691 147.802L366.007 150.916L369.1 149.608C369.481 149.447 369.921 149.625 370.083 150.007C370.244 150.388 370.065 150.828 369.684 150.99L365.901 152.589C365.519 152.751 365.079 152.572 364.918 152.191L363.309 148.386C363.148 148.005 363.327 147.565 363.708 147.404Z" fill="#0E121B"/>
<path fill-rule="evenodd" clip-rule="evenodd" d="M372.915 145.664C369.468 145.664 366.666 148.41 366.58 151.824C366.569 152.238 366.225 152.565 365.811 152.555C365.397 152.544 365.07 152.2 365.08 151.786C365.188 147.558 368.655 144.164 372.915 144.164C377.239 144.164 380.75 147.675 380.75 151.999C380.75 156.332 377.239 159.834 372.915 159.834C370.234 159.834 367.876 158.492 366.458 156.45C366.222 156.109 366.306 155.642 366.646 155.406C366.987 155.17 367.454 155.254 367.69 155.594C368.841 157.252 370.748 158.334 372.915 158.334C376.411 158.334 379.25 155.502 379.25 151.999C379.25 148.503 376.411 145.664 372.915 145.664Z" fill="#0E121B"/>
<path d="M425 147.782V156.217C425 159.165 422.919 161 419.974 161H412.026C409.081 161 407 159.165 407 156.216V147.782C407 144.834 409.081 143 412.026 143H419.974C422.919 143 425 144.843 425 147.782Z" stroke="#0E121B" stroke-width="1.5" stroke-linecap="round" stroke-linejoin="round"/>
<path d="M419 154L415.998 157L413 154" stroke="#0E121B" stroke-width="1.5" stroke-linecap="round" stroke-linejoin="round"/>
<path d="M415.998 157V150" stroke="#0E121B" stroke-width="1.5" stroke-linecap="round" stroke-linejoin="round"/>
<path d="M424.934 147H407.059" stroke="#0E121B" stroke-width="1.5" stroke-linecap="round" stroke-linejoin="round"/>
<path d="M462.852 143.879L463.67 145.664H466.31C467.121 145.664 467.779 146.322 467.779 147.133V148.221C467.779 148.776 467.329 149.226 466.774 149.226H453.005C452.45 149.226 452 148.776 452 148.221V147.133C452 146.322 452.658 145.664 453.469 145.664H456.109L456.927 143.879C457.173 143.343 457.708 143 458.297 143H461.482C462.071 143 462.606 143.343 462.852 143.879Z" stroke="#0E121B" stroke-width="1.5" stroke-linecap="round" stroke-linejoin="round"/>
<path d="M466.24 149.301V157.986C466.24 159.651 464.907 161 463.263 161H456.517C454.873 161 453.54 159.651 453.54 157.986V149.301" stroke="#0E121B" stroke-width="1.5" stroke-linecap="round" stroke-linejoin="round"/>
<path d="M458.199 152.816V157.325M461.58 152.816V157.325" stroke="#0E121B" stroke-width="1.5" stroke-linecap="round" stroke-linejoin="round"/>
<path fill-rule="evenodd" clip-rule="evenodd" d="M507.993 150.222L503.375 154.84C503.228 154.987 503.037 155.06 502.845 155.06C502.652 155.06 502.461 154.987 502.314 154.84L500.005 152.531C499.712 152.238 499.712 151.763 500.005 151.47C500.298 151.177 500.772 151.177 501.065 151.47L502.845 153.249L506.932 149.161C507.225 148.868 507.7 148.868 507.993 149.161C508.286 149.454 508.286 149.929 507.993 150.222ZM504 142.5C498.762 142.5 494.5 146.762 494.5 152C494.5 157.239 498.762 161.5 504 161.5C509.238 161.5 513.5 157.239 513.5 152C513.5 146.762 509.238 142.5 504 142.5Z" fill="#0E121B"/>
<path d="M146 191L158 203" stroke="#0E121B" stroke-width="1.5" stroke-linecap="round" stroke-linejoin="round"/>
<path d="M158 191L146 203" stroke="#0E121B" stroke-width="1.5" stroke-linecap="round" stroke-linejoin="round"/>
<path fill-rule="evenodd" clip-rule="evenodd" d="M276.496 193.025C276.91 193.025 277.246 193.361 277.246 193.775V202.45C277.246 203.728 278.282 204.764 279.56 204.764H288.439C289.717 204.764 290.753 203.728 290.753 202.45V193.775C290.753 193.361 291.089 193.025 291.503 193.025C291.917 193.025 292.253 193.361 292.253 193.775V202.45C292.253 204.557 290.546 206.264 288.439 206.264H279.56C277.454 206.264 275.746 204.557 275.746 202.45V193.775C275.746 193.361 276.082 193.025 276.496 193.025Z" fill="#0E121B"/>
<path fill-rule="evenodd" clip-rule="evenodd" d="M282.061 188.41C283.197 187.512 284.803 187.512 285.939 188.41L293.465 194.368C293.79 194.625 293.845 195.097 293.588 195.422C293.331 195.746 292.859 195.801 292.534 195.544L285.009 189.587C285.009 189.587 285.009 189.587 285.009 189.587C284.418 189.12 283.582 189.12 282.991 189.587C282.991 189.587 282.991 189.587 282.991 189.587L275.466 195.544C275.141 195.801 274.669 195.746 274.412 195.422C274.155 195.097 274.21 194.625 274.535 194.368L282.061 188.41Z" fill="#0E121B"/>
<path fill-rule="evenodd" clip-rule="evenodd" d="M289.668 189.193C290.082 189.193 290.418 189.529 290.418 189.943V192.297C290.418 192.711 290.082 193.047 289.668 193.047C289.254 193.047 288.918 192.711 288.918 192.297V189.943C288.918 189.529 289.254 189.193 289.668 189.193Z" fill="#0E121B"/>
<path fill-rule="evenodd" clip-rule="evenodd" d="M283.974 198.688H284.029C284.406 198.688 284.731 198.687 284.999 198.708C285.282 198.73 285.564 198.779 285.837 198.911C286.295 199.132 286.665 199.502 286.886 199.96C287.018 200.234 287.067 200.515 287.089 200.798C287.11 201.066 287.11 201.391 287.11 201.768V205.514C287.11 205.928 286.774 206.264 286.36 206.264C285.946 206.264 285.61 205.928 285.61 205.514V201.796C285.61 201.384 285.609 201.118 285.593 200.915C285.578 200.72 285.552 200.647 285.535 200.612C285.462 200.459 285.338 200.336 285.186 200.262C285.15 200.245 285.077 200.219 284.883 200.204C284.68 200.188 284.414 200.188 284.002 200.188C283.59 200.188 283.323 200.188 283.121 200.204C282.926 200.219 282.853 200.245 282.818 200.262C282.665 200.336 282.542 200.459 282.468 200.612C282.451 200.647 282.425 200.72 282.41 200.915C282.394 201.118 282.394 201.384 282.394 201.796V205.514C282.394 205.928 282.058 206.264 281.644 206.264C281.229 206.264 280.894 205.928 280.894 205.514V201.768C280.894 201.391 280.894 201.066 280.914 200.798C280.936 200.515 280.985 200.234 281.117 199.96C281.338 199.502 281.708 199.132 282.166 198.911C282.44 198.779 282.721 198.73 283.004 198.708C283.272 198.687 283.597 198.688 283.974 198.688Z" fill="#0E121B"/>
<path fill-rule="evenodd" clip-rule="evenodd" d="M319.016 190.966C319.019 189.555 320.086 188.289 321.472 188.051C321.756 188.001 325.088 188.008 326.467 188.009C327.831 188.01 328.994 188.5 329.957 189.461C332.002 191.503 334.045 193.546 336.086 195.591C337.293 196.8 337.31 198.657 336.107 199.87C334.372 201.621 332.629 203.364 330.878 205.099C329.666 206.3 327.81 206.285 326.599 205.077C324.535 203.02 322.472 200.962 320.417 198.895C319.622 198.095 319.153 197.129 319.049 196C318.965 195.097 319.014 191.74 319.016 190.966Z" stroke="#0E121B" stroke-width="1.8" stroke-linecap="round" stroke-linejoin="round"/>
<path fill-rule="evenodd" clip-rule="evenodd" d="M325.907 193.315C325.903 194.185 325.176 194.9 324.298 194.898C323.425 194.896 322.698 194.169 322.703 193.302C322.709 192.397 323.425 191.691 324.336 191.695C325.2 191.698 325.911 192.431 325.907 193.315Z" stroke="#0E121B" stroke-width="1.8" stroke-linecap="round" stroke-linejoin="round"/>
<path d="M372.055 188V189.372M372.055 204.628V206M381.055 197H379.683M364.427 197H363.055M378.418 190.636L377.448 191.606M366.661 202.394L365.691 203.364M378.418 203.364L377.448 202.394M366.661 191.606L365.691 190.636" stroke="#0E121B" stroke-width="1.5" stroke-linecap="round" stroke-linejoin="round"/>
<path fill-rule="evenodd" clip-rule="evenodd" d="M372.055 192.805C374.372 192.805 376.25 194.683 376.25 197C376.25 199.318 374.372 201.197 372.055 201.197C369.737 201.197 367.859 199.318 367.859 197C367.859 194.683 369.737 192.805 372.055 192.805Z" stroke="#0E121B" stroke-width="1.5" stroke-linecap="round" stroke-linejoin="round"/>
<path d="M240.614 206.723C238.084 206.723 235.584 205.753 233.724 203.883C231.864 202.013 230.874 199.603 230.874 197.003C230.874 194.403 231.884 191.963 233.724 190.123C236.774 187.063 241.544 186.393 245.314 188.493C245.574 188.643 245.754 188.973 245.724 189.273C245.694 189.603 245.474 189.873 245.154 189.973C242.104 190.913 239.964 193.803 239.964 197.003C239.964 200.213 242.104 203.103 245.154 204.023C245.444 204.113 245.684 204.403 245.724 204.703C245.764 205.003 245.584 205.353 245.324 205.503C243.854 206.323 242.224 206.723 240.614 206.723ZM240.614 188.783C238.474 188.783 236.364 189.613 234.784 191.183C233.204 192.753 232.374 194.803 232.374 197.003C232.374 199.203 233.224 201.273 234.784 202.823C236.994 205.033 240.274 205.763 243.174 204.813C240.344 203.303 238.474 200.293 238.474 197.003C238.474 193.713 240.344 190.703 243.164 189.183C242.334 188.913 241.464 188.783 240.614 188.783ZM244.584 189.803C244.584 189.803 244.594 189.803 244.604 189.813C244.604 189.813 244.594 189.813 244.584 189.803Z" fill="#0E121B"/>
<path d="M246.974 204.052C246.784 204.052 246.594 203.983 246.444 203.833C246.154 203.543 246.154 203.062 246.444 202.772C247.994 201.222 248.854 199.153 248.854 196.962C248.854 194.772 248.004 192.702 246.444 191.152C246.154 190.862 246.154 190.382 246.444 190.093C246.734 189.803 247.214 189.803 247.504 190.093C249.344 191.933 250.354 194.372 250.354 196.962C250.354 199.552 249.344 202.003 247.504 203.833C247.354 203.983 247.164 204.052 246.974 204.052Z" fill="#0E121B"/>
<path d="M189.47 204.825C189.28 204.825 189.09 204.755 188.94 204.605C188.65 204.315 188.65 203.835 188.94 203.545L203.06 189.425C203.35 189.135 203.83 189.135 204.12 189.425C204.41 189.715 204.41 190.195 204.12 190.485L190 204.605C189.85 204.755 189.66 204.825 189.47 204.825Z" fill="#0E121B"/>
<path d="M187.611 200.325C187.321 200.325 187.041 200.155 186.921 199.875C186.761 199.495 186.921 199.055 187.311 198.885C187.691 198.725 188.151 198.884 188.321 199.264C188.491 199.644 188.331 200.075 187.951 200.245L187.911 200.264C187.811 200.304 187.711 200.325 187.611 200.325ZM187.661 193.644C187.561 193.644 187.461 193.624 187.371 193.584C186.991 193.424 186.801 192.974 186.961 192.594C187.121 192.214 187.551 192.034 187.931 192.194H187.961C188.341 192.364 188.521 192.804 188.361 193.184C188.241 193.474 187.961 193.644 187.671 193.644H187.661ZM192.351 188.944C192.061 188.944 191.781 188.774 191.661 188.494C191.501 188.114 191.661 187.654 192.041 187.494C192.421 187.324 192.861 187.494 193.021 187.874V187.904C193.201 188.284 193.021 188.724 192.641 188.894C192.541 188.934 192.441 188.954 192.341 188.954L192.351 188.944ZM198.991 188.914C198.901 188.914 198.811 188.894 198.721 188.864C198.341 188.704 198.151 188.294 198.311 187.914L198.331 187.854C198.491 187.474 198.931 187.294 199.311 187.454C199.691 187.614 199.871 188.054 199.711 188.434C199.591 188.724 199.291 188.914 198.991 188.914Z" fill="#0E121B"/>
<path d="M200.991 206.604C200.991 206.604 200.961 206.604 200.941 206.604C198.521 206.384 196.521 204.574 196.071 202.204C195.991 201.794 196.261 201.404 196.671 201.324C197.071 201.254 197.471 201.514 197.551 201.924C197.781 203.114 198.541 204.114 199.581 204.664C199.141 203.244 199.341 201.644 200.211 200.354C201.081 199.074 202.501 198.294 203.991 198.194C203.101 197.434 201.891 197.084 200.691 197.314C200.291 197.384 199.891 197.124 199.811 196.714C199.731 196.304 200.001 195.914 200.411 195.834C202.781 195.384 205.201 196.574 206.291 198.734C206.431 199.004 206.381 199.364 206.181 199.594C205.981 199.824 205.631 199.924 205.341 199.824C203.911 199.384 202.311 199.944 201.451 201.204C200.591 202.464 200.661 204.164 201.611 205.334C201.801 205.564 201.831 205.924 201.691 206.194C201.561 206.444 201.271 206.604 201.001 206.604H200.991Z" fill="#0E121B"/>
<path d="M191.99 198.785C191.8 198.785 191.61 198.715 191.46 198.565C189.61 196.715 189.61 193.695 191.46 191.845C193.31 189.995 196.33 189.995 198.18 191.845C198.47 192.135 198.47 192.615 198.18 192.905C197.89 193.195 197.41 193.195 197.12 192.905C195.85 191.635 193.79 191.635 192.52 192.905C191.25 194.175 191.25 196.235 192.52 197.505C192.81 197.795 192.81 198.275 192.52 198.565C192.37 198.715 192.18 198.785 191.99 198.785Z" fill="#0E121B"/>
<path fill-rule="evenodd" clip-rule="evenodd" d="M424.999 195.979H418.631C418.079 195.979 417.631 196.426 417.631 196.979V198.109C417.631 198.662 418.079 199.109 418.631 199.109C419.183 199.109 419.631 198.662 419.631 198.109V197.979H420.785V202.388H420.395C419.843 202.388 419.395 202.835 419.395 203.388C419.395 203.941 419.843 204.388 420.395 204.388H423.236C423.788 204.388 424.236 203.941 424.236 203.388C424.236 202.835 423.788 202.388 423.236 202.388H422.785V197.979H423.999V198.109C423.999 198.662 424.447 199.109 424.999 199.109C425.551 199.109 425.999 198.662 425.999 198.109V196.979C425.999 196.426 425.551 195.979 424.999 195.979Z" fill="#0E121B"/>
<path fill-rule="evenodd" clip-rule="evenodd" d="M416.185 202.388H414.29V191.609H418.705V192.859C418.705 193.411 419.153 193.859 419.705 193.859C420.257 193.859 420.705 193.411 420.705 192.859V190.609C420.705 190.056 420.257 189.609 419.705 189.609H406.999C406.447 189.609 405.999 190.056 405.999 190.609V192.859C405.999 193.411 406.447 193.859 406.999 193.859C407.551 193.859 407.999 193.411 407.999 192.859V191.609H412.29V202.388H410.517C409.965 202.388 409.517 202.835 409.517 203.388C409.517 203.941 409.965 204.388 410.517 204.388H416.185C416.737 204.388 417.185 203.941 417.185 203.388C417.185 202.835 416.737 202.388 416.185 202.388Z" fill="#0E121B"/>
<path d="M464.424 194.448V192.301C464.424 189.788 462.386 187.75 459.873 187.75C457.36 187.739 455.314 189.767 455.303 192.281V192.301V194.448" stroke="#0E121B" stroke-width="1.8" stroke-linecap="round" stroke-linejoin="round"/>
<path fill-rule="evenodd" clip-rule="evenodd" d="M463.683 206.25H456.042C453.948 206.25 452.25 204.553 452.25 202.458V198.169C452.25 196.074 453.948 194.377 456.042 194.377H463.683C465.777 194.377 467.475 196.074 467.475 198.169V202.458C467.475 204.553 465.777 206.25 463.683 206.25Z" stroke="#0E121B" stroke-width="1.8" stroke-linecap="round" stroke-linejoin="round"/>
<path d="M459.862 199.203V201.424" stroke="#0E121B" stroke-width="1.8" stroke-linecap="round" stroke-linejoin="round"/>
<path d="M513 196.999H500.945M513 196.999L510.068 194.064M513 196.999L510.068 199.934" stroke="#0E121B" stroke-width="1.8" stroke-linecap="round" stroke-linejoin="round"/>
<path d="M506.556 193.266V192.251C506.556 190.691 505.435 189.36 503.905 189.102L498.702 188.045C496.765 187.718 495 189.219 495 191.194V202.806C495 204.781 496.765 206.282 498.702 205.955L503.905 204.898C505.435 204.64 506.556 203.309 506.556 201.749V200.735" stroke="#0E121B" stroke-width="1.8" stroke-linecap="round" stroke-linejoin="round"/>
<path d="M548 190C548.414 190 548.75 190.336 548.75 190.75V196H554C554.414 196 554.75 196.336 554.75 196.75C554.75 196.977 554.649 197.18 554.491 197.317C554.359 197.431 554.188 197.5 554 197.5H548.75V202.75C548.75 203.164 548.414 203.5 548 203.5C547.586 203.5 547.25 203.164 547.25 202.75V197.5H542C541.586 197.5 541.25 197.164 541.25 196.75C541.25 196.336 541.586 196 542 196H547.25V190.75C547.25 190.336 547.586 190 548 190Z" fill="black"/>
<path fill-rule="evenodd" clip-rule="evenodd" d="M548 156.762C547.305 156.762 546.738 157.327 546.738 158.023C546.738 158.718 547.305 159.283 548 159.283C548.695 159.283 549.261 158.718 549.261 158.023C549.261 157.327 548.695 156.762 548 156.762Z" fill="black"/>
<path fill-rule="evenodd" clip-rule="evenodd" d="M548 150.74C547.305 150.74 546.738 151.305 546.738 152.001C546.738 152.696 547.305 153.261 548 153.261C548.695 153.261 549.261 152.696 549.261 152.001C549.261 151.305 548.695 150.74 548 150.74Z" fill="black"/>
<path fill-rule="evenodd" clip-rule="evenodd" d="M548 147.24C548.695 147.24 549.261 146.675 549.261 145.979C549.261 145.284 548.695 144.719 548 144.719C547.305 144.719 546.738 145.284 546.738 145.979C546.738 146.675 547.305 147.24 548 147.24Z" fill="black"/>
<path fill-rule="evenodd" clip-rule="evenodd" d="M595.75 160.414L587.336 152L595.75 143.586L597.164 145L590.164 152L597.164 159L595.75 160.414Z" fill="black"/>
<path fill-rule="evenodd" clip-rule="evenodd" d="M145.658 233.348C145.928 233.077 146.366 233.077 146.637 233.348L147.513 234.224C147.783 234.494 147.783 234.932 147.513 235.203C147.242 235.473 146.804 235.473 146.534 235.203L145.658 234.327C145.387 234.057 145.387 233.618 145.658 233.348ZM147.513 242.794C147.783 243.064 147.783 243.503 147.513 243.773L145.924 245.363C145.654 245.633 145.216 245.633 144.945 245.363C144.675 245.093 144.675 244.654 144.945 244.384L146.534 242.794C146.804 242.524 147.242 242.524 147.513 242.794ZM155.105 242.794C155.376 242.524 155.814 242.524 156.084 242.794L157.673 244.384C157.943 244.654 157.943 245.093 157.673 245.363C157.402 245.633 156.964 245.633 156.694 245.363L155.105 243.773C154.835 243.503 154.835 243.064 155.105 242.794Z" fill="#2B303B"/>
<path fill-rule="evenodd" clip-rule="evenodd" d="M151.308 231.583C151.69 231.583 152 231.893 152 232.276V232.938C152 233.321 151.69 233.631 151.308 233.631C150.926 233.631 150.616 233.321 150.616 232.938V232.276C150.616 231.893 150.926 231.583 151.308 231.583ZM142.824 238.999C142.824 238.617 143.134 238.307 143.516 238.307H145.247C145.63 238.307 145.94 238.617 145.94 238.999C145.94 239.381 145.63 239.691 145.247 239.691H143.516C143.134 239.691 142.824 239.381 142.824 238.999ZM156.676 238.999C156.676 238.617 156.986 238.307 157.369 238.307H159.616C159.998 238.307 160.308 238.617 160.308 238.999C160.308 239.381 159.998 239.691 159.616 239.691H157.369C156.986 239.691 156.676 239.381 156.676 238.999ZM151.308 244.367C151.69 244.367 152 244.677 152 245.06V247.307C152 247.689 151.69 247.999 151.308 247.999C150.926 247.999 150.616 247.689 150.616 247.307V245.06C150.616 244.677 150.926 244.367 151.308 244.367Z" fill="#2B303B"/>
<path fill-rule="evenodd" clip-rule="evenodd" d="M196.25 230.75C191.694 230.75 188 234.443 188 239C188 243.556 191.694 247.25 196.25 247.25C200.807 247.25 204.5 243.556 204.5 239C204.5 234.443 200.807 230.75 196.25 230.75ZM186.5 239C186.5 233.615 190.865 229.25 196.25 229.25C201.636 229.25 206 233.615 206 239C206 244.384 201.636 248.75 196.25 248.75C190.865 248.75 186.5 244.384 186.5 239Z" fill="#2B303B"/>
<path fill-rule="evenodd" clip-rule="evenodd" d="M195.922 234.827C196.337 234.827 196.672 235.162 196.672 235.577V239.249L199.482 240.928C199.837 241.141 199.953 241.601 199.741 241.957C199.528 242.312 199.068 242.428 198.712 242.216L195.538 240.319C195.311 240.183 195.172 239.939 195.172 239.675V235.577C195.172 235.162 195.508 234.827 195.922 234.827Z" fill="#2B303B"/>
<path d="M289 244.365L292.605 233.434H294.541L298.145 244.365H296.376L294.607 238.408C294.429 237.807 294.251 237.206 294.073 236.605C293.906 235.993 293.739 235.381 293.573 234.77H293.506C293.35 235.381 293.183 235.993 293.005 236.605C292.838 237.206 292.666 237.807 292.488 238.408L290.702 244.365H289ZM291.019 241.228V239.91H296.093V241.228H291.019Z" fill="#0E121B"/>
<path d="M302.344 244.566C301.821 244.566 301.348 244.471 300.926 244.282C300.514 244.082 300.186 243.809 299.941 243.464C299.707 243.108 299.591 242.691 299.591 242.212C299.591 241.3 300.036 240.605 300.926 240.126C301.827 239.648 303.301 239.331 305.348 239.175C305.337 238.841 305.259 238.536 305.114 238.257C304.981 237.979 304.764 237.762 304.464 237.607C304.174 237.44 303.79 237.356 303.312 237.356C302.978 237.356 302.65 237.401 302.327 237.49C302.005 237.568 301.693 237.679 301.393 237.823C301.092 237.968 300.809 238.118 300.542 238.274L299.924 237.156C300.225 236.978 300.57 236.8 300.959 236.622C301.348 236.433 301.766 236.283 302.211 236.171C302.667 236.06 303.128 236.004 303.596 236.004C304.352 236.004 304.981 236.144 305.482 236.422C305.982 236.7 306.36 237.095 306.616 237.607C306.872 238.118 307 238.736 307 239.459V244.365H305.648L305.515 243.314H305.465C305.031 243.648 304.541 243.943 303.996 244.198C303.451 244.443 302.9 244.566 302.344 244.566ZM302.811 243.247C303.245 243.247 303.674 243.153 304.096 242.963C304.519 242.774 304.936 242.507 305.348 242.162V240.227C304.28 240.304 303.44 240.427 302.828 240.594C302.227 240.761 301.805 240.972 301.56 241.228C301.315 241.473 301.193 241.762 301.193 242.096C301.193 242.363 301.265 242.585 301.41 242.763C301.565 242.93 301.766 243.052 302.01 243.13C302.255 243.208 302.522 243.247 302.811 243.247Z" fill="#0E121B"/>
<path d="M262.501 233.317L266.359 243.245C266.506 243.635 266.675 243.898 266.865 244.035C267.065 244.172 267.249 244.246 267.418 244.256V244.573C267.165 244.552 266.865 244.541 266.517 244.541C266.18 244.53 265.837 244.525 265.489 244.525C265.047 244.525 264.636 244.53 264.256 244.541C263.877 244.541 263.571 244.552 263.339 244.573V244.256C263.877 244.235 264.214 244.146 264.351 243.988C264.499 243.819 264.467 243.466 264.256 242.929L261.411 235.245L261.664 234.961L259.039 241.822C258.85 242.296 258.734 242.691 258.692 243.008C258.66 243.324 258.686 243.571 258.771 243.751C258.865 243.93 259.024 244.056 259.245 244.13C259.466 244.204 259.74 244.246 260.067 244.256V244.573C259.751 244.552 259.429 244.541 259.103 244.541C258.786 244.53 258.486 244.525 258.201 244.525C257.949 244.525 257.722 244.53 257.522 244.541C257.332 244.541 257.158 244.552 257 244.573V244.256C257.221 244.204 257.443 244.072 257.664 243.861C257.885 243.65 258.096 243.292 258.296 242.786L261.964 233.317C262.048 233.317 262.138 233.317 262.233 233.317C262.328 233.317 262.417 233.317 262.501 233.317ZM264.161 240.02V240.336H259.45L259.608 240.02H264.161Z" fill="#0E121B"/>
<path d="M269.72 244.683C269.277 244.683 268.898 244.599 268.582 244.43C268.265 244.262 268.028 244.03 267.87 243.735C267.712 243.44 267.633 243.102 267.633 242.723C267.633 242.259 267.738 241.885 267.949 241.601C268.16 241.305 268.429 241.068 268.755 240.889C269.093 240.71 269.446 240.562 269.815 240.447C270.194 240.32 270.547 240.204 270.874 240.099C271.211 239.983 271.485 239.851 271.696 239.703C271.917 239.556 272.028 239.361 272.028 239.119V238.044C272.028 237.664 271.965 237.364 271.838 237.142C271.722 236.911 271.559 236.747 271.348 236.652C271.148 236.558 270.906 236.51 270.621 236.51C270.379 236.51 270.12 236.547 269.846 236.621C269.572 236.684 269.356 236.816 269.198 237.016C269.43 237.079 269.62 237.206 269.767 237.395C269.925 237.575 270.004 237.801 270.004 238.075C270.004 238.37 269.904 238.602 269.704 238.771C269.514 238.939 269.272 239.024 268.977 239.024C268.65 239.024 268.408 238.924 268.25 238.723C268.092 238.513 268.012 238.27 268.012 237.996C268.012 237.712 268.081 237.48 268.218 237.301C268.366 237.121 268.555 236.953 268.787 236.795C269.04 236.626 269.362 236.484 269.751 236.368C270.152 236.252 270.595 236.194 271.079 236.194C271.533 236.194 271.923 236.247 272.249 236.352C272.587 236.447 272.866 236.605 273.087 236.826C273.351 237.069 273.525 237.374 273.609 237.743C273.693 238.102 273.735 238.539 273.735 239.055V243.419C273.735 243.682 273.767 243.872 273.83 243.988C273.904 244.093 274.02 244.146 274.178 244.146C274.283 244.146 274.383 244.119 274.478 244.067C274.584 244.014 274.705 243.935 274.842 243.83L275 244.098C274.779 244.278 274.552 244.42 274.32 244.525C274.099 244.631 273.814 244.683 273.467 244.683C273.129 244.683 272.855 244.631 272.644 244.525C272.434 244.42 272.276 244.267 272.17 244.067C272.075 243.866 272.028 243.619 272.028 243.324C271.754 243.766 271.427 244.104 271.048 244.335C270.668 244.567 270.226 244.683 269.72 244.683ZM270.479 243.924C270.774 243.924 271.048 243.84 271.301 243.672C271.564 243.503 271.807 243.25 272.028 242.913V239.767C271.912 239.935 271.743 240.083 271.522 240.209C271.301 240.325 271.064 240.447 270.811 240.573C270.558 240.699 270.315 240.847 270.083 241.016C269.862 241.174 269.678 241.379 269.53 241.632C269.383 241.885 269.309 242.207 269.309 242.597C269.309 243.008 269.414 243.334 269.625 243.577C269.836 243.809 270.12 243.924 270.479 243.924Z" fill="#0E121B"/>
<path d="M222.808 244.551H221L225.062 233.262H227.03L231.093 244.551H229.285L226.093 235.312H226.005L222.808 244.551ZM223.111 240.13H228.976V241.563H223.111V240.13Z" fill="#0E121B"/>
<path d="M234.822 244.738C234.285 244.738 233.8 244.639 233.367 244.44C232.933 244.238 232.589 243.946 232.336 243.564C232.086 243.182 231.961 242.713 231.961 242.158C231.961 241.681 232.053 241.288 232.237 240.979C232.42 240.67 232.668 240.426 232.981 240.246C233.293 240.066 233.642 239.93 234.028 239.838C234.414 239.746 234.807 239.676 235.208 239.628C235.715 239.57 236.126 239.522 236.442 239.485C236.758 239.445 236.988 239.38 237.131 239.292C237.275 239.204 237.346 239.061 237.346 238.862V238.824C237.346 238.342 237.21 237.969 236.938 237.705C236.67 237.44 236.27 237.308 235.737 237.308C235.182 237.308 234.745 237.431 234.425 237.677C234.109 237.92 233.89 238.19 233.769 238.487L232.22 238.135C232.404 237.62 232.672 237.205 233.025 236.889C233.381 236.569 233.791 236.338 234.254 236.194C234.717 236.047 235.204 235.974 235.715 235.974C236.053 235.974 236.411 236.014 236.79 236.095C237.172 236.172 237.528 236.316 237.859 236.525C238.193 236.735 238.467 237.034 238.68 237.424C238.893 237.809 239 238.311 239 238.928V244.551H237.39V243.393H237.324C237.218 243.606 237.058 243.816 236.845 244.022C236.632 244.227 236.358 244.398 236.023 244.534C235.689 244.67 235.288 244.738 234.822 244.738ZM235.18 243.415C235.636 243.415 236.025 243.325 236.349 243.145C236.676 242.965 236.924 242.73 237.093 242.44C237.266 242.146 237.352 241.831 237.352 241.497V240.406C237.293 240.464 237.179 240.52 237.01 240.571C236.845 240.619 236.655 240.661 236.442 240.698C236.229 240.731 236.022 240.762 235.819 240.791C235.617 240.817 235.448 240.839 235.312 240.858C234.993 240.898 234.701 240.966 234.436 241.062C234.175 241.157 233.966 241.295 233.808 241.475C233.653 241.651 233.576 241.887 233.576 242.181C233.576 242.588 233.727 242.897 234.028 243.107C234.329 243.312 234.713 243.415 235.18 243.415Z" fill="#0E121B"/>
<path fill-rule="evenodd" clip-rule="evenodd" d="M586.47 192.47C586.763 192.177 587.237 192.177 587.53 192.47L591.53 196.47C591.823 196.763 591.823 197.237 591.53 197.53L587.53 201.53C587.237 201.823 586.763 201.823 586.47 201.53C586.177 201.237 586.177 200.763 586.47 200.47L589.939 197L586.47 193.53C586.177 193.237 586.177 192.763 586.47 192.47Z" fill="black"/>
<rect x="40" y="4" width="39.7969" height="30" rx="3" fill="white"/>
<rect x="40.5" y="4.5" width="38.7969" height="29" rx="2.5" stroke="white" stroke-opacity="0.0980392"/>
<path d="M47.9375 14V22H46.9688V14H47.9375ZM52.1924 22.125C51.6299 22.125 51.1455 21.9922 50.7393 21.7266C50.333 21.4609 50.0205 21.0951 49.8018 20.6289C49.583 20.1628 49.4736 19.6302 49.4736 19.0312C49.4736 18.4219 49.5856 17.8841 49.8096 17.418C50.0361 16.9492 50.3512 16.5833 50.7549 16.3203C51.1611 16.0547 51.6351 15.9219 52.1768 15.9219C52.5986 15.9219 52.9788 16 53.3174 16.1562C53.6559 16.3125 53.9333 16.5312 54.1494 16.8125C54.3656 17.0937 54.4997 17.4219 54.5518 17.7969H53.6299C53.5596 17.5234 53.4033 17.2812 53.1611 17.0703C52.9215 16.8568 52.5986 16.75 52.1924 16.75C51.833 16.75 51.5179 16.8437 51.2471 17.0312C50.9788 17.2161 50.7692 17.4779 50.6182 17.8164C50.4697 18.1523 50.3955 18.5469 50.3955 19C50.3955 19.4635 50.4684 19.8672 50.6143 20.2109C50.7627 20.5547 50.971 20.8216 51.2393 21.0117C51.5101 21.2018 51.8278 21.2969 52.1924 21.2969C52.432 21.2969 52.6494 21.2552 52.8447 21.1719C53.04 21.0885 53.2054 20.9688 53.3408 20.8125C53.4762 20.6562 53.5726 20.4687 53.6299 20.25H54.5518C54.4997 20.6042 54.3708 20.9232 54.165 21.207C53.9619 21.4883 53.6924 21.7122 53.3564 21.8789C53.0231 22.043 52.6351 22.125 52.1924 22.125ZM58.3369 22.125C57.7952 22.125 57.32 21.9961 56.9111 21.7383C56.5049 21.4805 56.1872 21.1198 55.958 20.6562C55.7314 20.1927 55.6182 19.651 55.6182 19.0312C55.6182 18.4062 55.7314 17.8607 55.958 17.3945C56.1872 16.9284 56.5049 16.5664 56.9111 16.3086C57.32 16.0508 57.7952 15.9219 58.3369 15.9219C58.8786 15.9219 59.3525 16.0508 59.7588 16.3086C60.1676 16.5664 60.4854 16.9284 60.7119 17.3945C60.9411 17.8607 61.0557 18.4062 61.0557 19.0312C61.0557 19.651 60.9411 20.1927 60.7119 20.6562C60.4854 21.1198 60.1676 21.4805 59.7588 21.7383C59.3525 21.9961 58.8786 22.125 58.3369 22.125ZM58.3369 21.2969C58.7484 21.2969 59.0869 21.1914 59.3525 20.9805C59.6182 20.7695 59.8148 20.4922 59.9424 20.1484C60.07 19.8047 60.1338 19.4323 60.1338 19.0312C60.1338 18.6302 60.07 18.2565 59.9424 17.9102C59.8148 17.5638 59.6182 17.2839 59.3525 17.0703C59.0869 16.8568 58.7484 16.75 58.3369 16.75C57.9255 16.75 57.5869 16.8568 57.3213 17.0703C57.0557 17.2839 56.859 17.5638 56.7314 17.9102C56.6038 18.2565 56.54 18.6302 56.54 19.0312C56.54 19.4323 56.6038 19.8047 56.7314 20.1484C56.859 20.4922 57.0557 20.7695 57.3213 20.9805C57.5869 21.1914 57.9255 21.2969 58.3369 21.2969ZM63.3848 18.3906V22H62.4629V16H63.3535V16.9375H63.4316C63.5723 16.6328 63.7858 16.388 64.0723 16.2031C64.3587 16.0156 64.7285 15.9219 65.1816 15.9219C65.5879 15.9219 65.9434 16.0052 66.248 16.1719C66.5527 16.3359 66.7897 16.5859 66.959 16.9219C67.1283 17.2552 67.2129 17.6771 67.2129 18.1875V22H66.291V18.25C66.291 17.7786 66.1686 17.4115 65.9238 17.1484C65.679 16.8828 65.3431 16.75 64.916 16.75C64.6217 16.75 64.3587 16.8138 64.127 16.9414C63.8978 17.069 63.7168 17.2552 63.584 17.5C63.4512 17.7448 63.3848 18.0417 63.3848 18.3906ZM73.1475 17.3437L72.3193 17.5781C72.2673 17.4401 72.1904 17.306 72.0889 17.1758C71.9899 17.043 71.8545 16.9336 71.6826 16.8477C71.5107 16.7617 71.2907 16.7187 71.0225 16.7187C70.6553 16.7187 70.3493 16.8034 70.1045 16.9727C69.8623 17.1393 69.7412 17.3516 69.7412 17.6094C69.7412 17.8385 69.8245 18.0195 69.9912 18.1523C70.1579 18.2852 70.4183 18.3958 70.7725 18.4844L71.6631 18.7031C72.1995 18.8333 72.5993 19.0326 72.8623 19.3008C73.1253 19.5664 73.2568 19.9089 73.2568 20.3281C73.2568 20.6719 73.1579 20.9792 72.96 21.25C72.7646 21.5208 72.4912 21.7344 72.1396 21.8906C71.7881 22.0469 71.3792 22.125 70.9131 22.125C70.3011 22.125 69.7946 21.9922 69.3936 21.7266C68.9925 21.4609 68.7386 21.0729 68.6318 20.5625L69.5068 20.3437C69.5902 20.6667 69.7477 20.9089 69.9795 21.0703C70.2139 21.2318 70.5199 21.3125 70.8975 21.3125C71.3271 21.3125 71.6683 21.2214 71.9209 21.0391C72.1761 20.8542 72.3037 20.6328 72.3037 20.375C72.3037 20.1667 72.2308 19.9922 72.085 19.8516C71.9391 19.7083 71.7152 19.6016 71.4131 19.5312L70.4131 19.2969C69.8636 19.1667 69.46 18.9648 69.2021 18.6914C68.9469 18.4154 68.8193 18.0703 68.8193 17.6562C68.8193 17.3177 68.9144 17.0182 69.1045 16.7578C69.2972 16.4974 69.5589 16.293 69.8896 16.1445C70.223 15.9961 70.6006 15.9219 71.0225 15.9219C71.6162 15.9219 72.0824 16.0521 72.4209 16.3125C72.762 16.5729 73.0042 16.9167 73.1475 17.3437Z" fill="black"/>
</svg>
