<svg width="20" height="20" viewBox="0 0 20 20" fill="none" xmlns="http://www.w3.org/2000/svg">
<path fill-rule="evenodd" clip-rule="evenodd" d="M10.0022 8.42888C8.89226 8.42888 7.99219 9.2924 7.99219 10.3585C7.99219 11.4239 8.89235 12.2881 10.0022 12.2881C11.112 12.2881 12.0122 11.4239 12.0122 10.3585C12.0122 9.2924 11.1122 8.42888 10.0022 8.42888ZM6.74219 10.3585C6.74219 8.62936 8.20214 7.22888 10.0022 7.22888C11.8023 7.22888 13.2622 8.62936 13.2622 10.3585C13.2622 12.0866 11.8023 13.4881 10.0022 13.4881C8.20201 13.4881 6.74219 12.0866 6.74219 10.3585Z" fill="#717784"/>
<path fill-rule="evenodd" clip-rule="evenodd" d="M4.1466 5.99548C5.64193 4.78181 7.70928 3.91687 10.002 3.91687C12.2942 3.91687 14.3615 4.78113 15.857 5.99451C17.3362 7.19468 18.337 8.80808 18.337 10.3585C18.337 11.9089 17.3362 13.5222 15.857 14.7224C14.3615 15.9358 12.2942 16.8001 10.002 16.8001C7.70928 16.8001 5.64193 15.9351 4.1466 14.7214C2.66762 13.521 1.66699 11.9077 1.66699 10.3585C1.66699 8.80928 2.66762 7.19588 4.1466 5.99548ZM4.95364 6.91186C3.64221 7.97626 2.91699 9.28368 2.91699 10.3585C2.91699 11.4333 3.64221 12.7406 4.95364 13.8051C6.24873 14.8562 8.03638 15.6001 10.002 15.6001C11.9673 15.6001 13.755 14.8567 15.0501 13.8059C16.3615 12.7418 17.087 11.4345 17.087 10.3585C17.087 9.28247 16.3615 7.97506 15.0501 6.91102C13.755 5.8602 11.9673 5.11687 10.002 5.11687C8.03638 5.11687 6.24873 5.86072 4.95364 6.91186Z" fill="#717784"/>
</svg>
