<svg width="18" height="17" viewBox="0 0 18 17" fill="none" xmlns="http://www.w3.org/2000/svg">
<path fill-rule="evenodd" clip-rule="evenodd" d="M8.48429 0C8.86662 0 9.17659 0.30996 9.17659 0.692308V1.35488C9.17659 1.73723 8.86662 2.04719 8.48429 2.04719C8.10195 2.04719 7.79198 1.73723 7.79198 1.35488V0.692308C7.79198 0.30996 8.10195 0 8.48429 0ZM0 7.41541C0 7.03307 0.30996 6.7231 0.692308 6.7231H2.42373C2.80608 6.7231 3.11604 7.03307 3.11604 7.41541C3.11604 7.79775 2.80608 8.10772 2.42373 8.10772H0.692308C0.30996 8.10772 0 7.79775 0 7.41541ZM13.8526 7.41541C13.8526 7.03307 14.1625 6.7231 14.5449 6.7231H16.792C17.1743 6.7231 17.4843 7.03307 17.4843 7.41541C17.4843 7.79775 17.1743 8.10772 16.792 8.10772H14.5449C14.1625 8.10772 13.8526 7.79775 13.8526 7.41541ZM8.48429 12.7837C8.86662 12.7837 9.17659 13.0937 9.17659 13.4761V15.7232C9.17659 16.1055 8.86662 16.4155 8.48429 16.4155C8.10195 16.4155 7.79198 16.1055 7.79198 15.7232V13.4761C7.79198 13.0937 8.10195 12.7837 8.48429 12.7837Z" fill="#2B303B"/>
</svg>
